# xmcd
#
# Track frame offsets:
#	150
#	17252
#	35627
#	50467
#	65512
#
# Disc length: 1077 seconds
#
# Revision: 0
# Processed by: cddbd v1.5.1PL0 Copyright (c) Steve Scherf et al.
# Submitted via: dBpowerAMP V4.0
#
DISCID=38043305
DTITLE=Hamlet - Summernight party
DYEAR=1900
DGENRE=dance
TTITLE0=Summernight party (Original)
TTITLE1=Summernight party (Happy summer mix)
TTITLE2=Summernight party ((Rock'da box mix)
TTITLE3=Summernight party (Yomani mix)
TTITLE4=Summernight party (Afro ball mix)
EXTD=
EXTT0=
EXTT1=
EXTT2=
EXTT3=
EXTT4=
PLAYORDER=
